<mxfile host="app.diagrams.net" modified="2020-10-20T07:51:46.033Z" agent="5.0 (Windows NT 6.1; WOW64) AppleWebKit/537.36 (KHTML, like Gecko) Chrome/83.0.4103.116 Safari/537.36" etag="weYt1PjXeqbxzO2HjOgD" version="13.8.0" type="github">
  <diagram id="o13rLG-Qm7zDkUPW5LQg" name="Page-1">
    <mxGraphModel dx="1422" dy="762" grid="1" gridSize="10" guides="1" tooltips="1" connect="1" arrows="1" fold="1" page="1" pageScale="1" pageWidth="827" pageHeight="1169" math="0" shadow="0">
      <root>
        <mxCell id="0" />
        <mxCell id="1" parent="0" />
        <mxCell id="RNcLevgCGSACrpoWrhjg-1" value="" style="ellipse;whiteSpace=wrap;html=1;direction=east;" vertex="1" parent="1">
          <mxGeometry x="130" y="30" width="120" height="80" as="geometry" />
        </mxCell>
        <mxCell id="RNcLevgCGSACrpoWrhjg-2" value="" style="ellipse;whiteSpace=wrap;html=1;strokeWidth=2;fillWeight=2;hachureGap=8;fillColor=#990000;fillStyle=dots;sketch=1;" vertex="1" parent="1">
          <mxGeometry x="100" y="210" width="120" height="60" as="geometry" />
        </mxCell>
        <mxCell id="RNcLevgCGSACrpoWrhjg-3" value="" style="ellipse;whiteSpace=wrap;html=1;strokeWidth=2;fillWeight=2;hachureGap=8;fillColor=#990000;fillStyle=dots;sketch=1;" vertex="1" parent="1">
          <mxGeometry x="70" y="560" width="120" height="60" as="geometry" />
        </mxCell>
        <mxCell id="RNcLevgCGSACrpoWrhjg-4" value="" style="rounded=1;whiteSpace=wrap;html=1;strokeWidth=2;fillWeight=4;hachureGap=8;hachureAngle=45;fillColor=#1ba1e2;sketch=1;" vertex="1" parent="1">
          <mxGeometry x="370" y="90" width="120" height="60" as="geometry" />
        </mxCell>
        <mxCell id="RNcLevgCGSACrpoWrhjg-5" value="" style="shape=image;html=1;verticalLabelPosition=bottom;verticalAlign=top;imageAspect=1;aspect=fixed;image=img/clipart/Gear_128x128.png" vertex="1" parent="1">
          <mxGeometry x="260" y="420" width="52" height="61" as="geometry" />
        </mxCell>
      </root>
    </mxGraphModel>
  </diagram>
</mxfile>
